<svg width="1440" height="1024" viewBox="0 0 1440 1024" fill="none" xmlns="http://www.w3.org/2000/svg">
<rect width="1440" height="1024" fill="white"/>
<g clip-path="url(#clip0)">
<path d="M266.144 390.991C280.918 378.593 297.844 372.194 301.999 378.103C306.154 384.012 294.445 398.76 281.739 409.576C270.576 419.078 -99.1104 710.692 -188.761 781.399C-189.274 781.804 -189.879 781.05 -189.383 780.625C-102.854 706.569 253.168 401.878 266.144 390.991Z" fill="url(#paint0_linear)"/>
<path d="M885.653 1002.56C865.791 1019.22 863.931 1024.71 864.878 1025.83C865.824 1026.96 875.03 1023.16 891.408 1009.42C904.393 998.521 1213.59 733.518 1341.15 624.182C1341.65 623.752 1341.01 623 1340.51 623.423C1211.43 730.987 898.561 991.726 885.653 1002.56Z" fill="url(#paint1_linear)"/>
<path d="M70.2069 1033.36C42.8712 1057.24 44.4845 1064.01 46.4173 1066.31C48.3501 1068.62 58.7215 1066.86 81.9588 1047.36C101.955 1030.58 467.785 710.248 569.444 621.218C569.938 620.785 569.31 620.048 568.804 620.466C463.881 707.203 84.3594 1020.99 70.2069 1033.36Z" fill="url(#paint2_linear)"/>
<path d="M1130.56 561.215C1117 572.593 1120.34 576.575 1121.82 578.339C1123.3 580.102 1128.38 581.322 1139.56 571.94C1148.09 564.782 1341.63 394.339 1432.93 313.913C1433.91 313.045 1432.65 311.564 1431.64 312.4C1337.84 389.881 1139.04 554.1 1130.56 561.215Z" fill="url(#paint3_linear)"/>
<path d="M1449.28 842.566C1461.87 832 1464.89 835.598 1466.37 837.362C1467.85 839.126 1468.67 844.578 1458.28 853.29C1449.59 860.584 1224.83 1039.49 1151.85 1097.58C1151.33 1097.99 1150.72 1097.24 1151.22 1096.81C1222.16 1036.26 1440.64 849.816 1449.28 842.566Z" fill="url(#paint4_linear)"/>
<path d="M376.209 192.207C346.516 216.663 341.411 213.993 340.411 213C339.411 212.008 337.173 207.11 368.061 180.856C394.021 158.791 615.2 -16.5227 685.124 -71.909C685.637 -72.3153 686.242 -71.563 685.744 -71.1381C617.568 -12.9589 401.182 171.64 376.209 192.207Z" fill="url(#paint5_linear)"/>
<path d="M202.809 86.9857C215.49 75.3931 212.62 69.6821 210.687 67.3787C208.754 65.0753 202.047 63.7588 191.057 72.9803C181.599 80.9161 12.0358 236.565 -35.0643 279.814C-35.5407 280.252 -34.9211 280.968 -34.4193 280.56C15.5426 239.942 196.243 92.9874 202.809 86.9857Z" fill="url(#paint6_linear)"/>
<path d="M436.105 649.157C456.668 631.903 454.518 629.34 453.565 628.205C452.613 627.07 447.27 628.026 430.313 642.255C418.507 652.161 170.149 864.87 20.3456 993.19C19.3398 994.052 20.6122 995.558 21.6294 994.71C173.161 868.404 424.369 659.005 436.105 649.157Z" fill="url(#paint7_linear)"/>
<path d="M1272.51 738.803C1256.78 752.489 1247.78 762.893 1252.83 767.038C1257.88 771.184 1274.68 758.209 1282.96 751.256C1289.45 745.814 1438.5 610.911 1502.96 552.545C1503.93 551.673 1502.67 550.214 1501.66 551.037C1434.37 606.07 1278.86 733.28 1272.51 738.803Z" fill="url(#paint8_linear)"/>
<path d="M483.144 770.99C497.918 758.593 514.844 752.194 518.999 758.103C523.154 764.012 511.445 778.76 498.739 789.576C487.576 799.078 117.89 1090.69 28.2386 1161.4C27.7256 1161.8 27.1206 1161.05 27.6171 1160.62C114.146 1086.57 470.168 781.878 483.144 770.99Z" fill="url(#paint9_linear)"/>
<path d="M925.661 166.417C912.785 177.22 910.844 174.907 909.893 173.773C908.941 172.639 909.258 168.431 919.876 159.522C928.3 152.453 1133.56 -14.1904 1218.01 -82.7396C1218.52 -83.1553 1219.15 -82.4016 1218.65 -81.975C1135.69 -11.6219 934.035 159.39 925.661 166.417Z" fill="url(#paint10_linear)"/>
<path d="M1436.11 129.706C1455.97 113.04 1457.83 107.558 1456.88 106.43C1455.94 105.301 1446.73 109.104 1430.35 122.847C1417.37 133.743 1108.17 398.746 980.613 508.081C980.111 508.512 980.746 509.264 981.255 508.84C1110.33 401.277 1423.2 140.538 1436.11 129.706Z" fill="url(#paint11_linear)"/>
<path d="M1281.9 496.141C1269 506.969 1272.02 510.567 1273.5 512.331C1274.98 514.095 1280.26 515.794 1290.9 506.865C1299.81 499.391 1520.49 304.532 1592.14 241.255C1592.63 240.821 1592 240.083 1591.5 240.5C1517.78 301.342 1290.76 488.71 1281.9 496.141Z" fill="url(#paint12_linear)"/>
<path d="M1429.14 283.337C1456.47 259.448 1454.86 252.682 1452.93 250.379C1451 248.075 1440.62 249.833 1417.39 269.332C1397.39 286.11 1031.56 606.445 929.902 695.475C929.407 695.908 930.035 696.645 930.541 696.226C1035.46 609.49 1414.99 295.705 1429.14 283.337Z" fill="url(#paint13_linear)"/>
<path d="M772.956 798.242C802.65 773.786 807.754 776.456 808.754 777.449C809.754 778.442 811.992 783.34 781.104 809.594C755.145 831.658 533.965 1006.97 464.041 1062.36C463.528 1062.76 462.924 1062.01 463.422 1061.59C531.598 1003.41 747.984 818.81 772.956 798.242Z" fill="url(#paint14_linear)"/>
<path d="M1083.3 1003.33C1070.61 1014.92 1073.48 1020.63 1075.42 1022.93C1077.35 1025.24 1084.06 1026.55 1095.05 1017.33C1104.5 1009.4 1274.07 853.747 1321.17 810.498C1321.64 810.061 1321.03 809.344 1320.52 809.752C1270.56 850.37 1089.86 997.325 1083.3 1003.33Z" fill="url(#paint15_linear)"/>
<path d="M795.511 362.629C774.947 379.884 777.098 382.446 778.05 383.582C779.003 384.717 784.346 383.76 801.303 369.532C813.109 359.625 1061.47 146.916 1211.27 18.596C1212.28 17.7344 1211 16.2284 1209.99 17.0764C1058.46 143.382 807.247 352.781 795.511 362.629Z" fill="url(#paint16_linear)"/>
<path d="M1104.1 944.308C1080.49 964.617 1066.41 979.383 1072.05 983.305C1077.69 987.227 1102.51 967.546 1114.89 957.162C1124.62 948.994 1351.64 748.251 1448.1 662.936C1449.08 662.068 1447.82 660.591 1446.81 661.425C1347.45 743.327 1113.67 936.072 1104.1 944.308Z" fill="url(#paint17_linear)"/>
<path d="M696.206 -5.21871C700.84 -9.10744 706.254 -9.65679 708.466 -7.0207C710.678 -4.38461 709.963 0.208345 704.562 4.73987C700.498 8.15005 648.452 44.553 622.943 62.3604C621.912 63.08 620.764 61.6461 621.705 60.8115C645.355 39.8125 694.047 -3.40677 696.206 -5.21871Z" fill="url(#paint18_linear)"/>
<path d="M344.735 983.342C335.999 990.672 332.98 987.073 331.5 985.31C330.019 983.546 328.532 978.662 335.736 972.617C341.767 967.557 499.168 845.168 550.274 805.44C550.788 805.041 551.396 805.784 550.903 806.208C501.836 848.398 350.73 978.311 344.735 983.342Z" fill="url(#paint19_linear)"/>
<path d="M606.428 712.363C582.499 732.441 580.892 730.526 580.25 729.76C579.607 728.994 578 727.078 601.928 707C620.177 691.688 931.412 434.55 1078.14 313.34C1078.65 312.918 1079.29 313.669 1078.78 314.096C932.156 437.744 619.843 701.106 606.428 712.363Z" fill="url(#paint20_linear)"/>
<path d="M913.161 48.4362C930.366 34 931.973 35.9151 932.616 36.6812C933.258 37.4472 934.865 39.3623 917.661 53.7985C904.54 64.8081 680.204 249.029 574.444 335.864C573.932 336.284 573.297 335.533 573.803 335.105C679.142 246.101 903.516 56.5297 913.161 48.4362Z" fill="url(#paint21_linear)"/>
<path d="M977.87 271.559C987.229 263.707 998.765 261.69 1001.87 264.929C1004.97 268.167 998.154 279.289 990.117 286.154C983.185 292.075 756.049 468.598 693.687 517.054C693.173 517.453 692.568 516.714 693.061 516.29C752.768 464.947 969.802 278.329 977.87 271.559Z" fill="url(#paint22_linear)"/>
<path d="M895.909 828.134C886.551 835.987 875.015 838.003 871.912 834.765C868.808 831.526 875.626 820.404 883.663 813.539C890.594 807.618 1117.73 631.095 1180.09 582.639C1180.61 582.24 1181.21 582.98 1180.72 583.404C1121.01 634.746 903.977 821.364 895.909 828.134Z" fill="url(#paint23_linear)"/>
<path d="M1377.34 452.165C1386.34 445.165 1392.44 448.124 1394.21 450.144C1395.99 452.165 1396.84 457.21 1387.84 465.165C1380.14 471.972 1307.6 520.052 1286.85 533.772C1286.33 534.113 1285.79 533.41 1286.25 532.996C1304.77 516.356 1369.64 458.157 1377.34 452.165Z" fill="url(#paint24_linear)"/>
<path d="M866.78 275.693C857.78 282.693 851.687 279.734 849.913 277.714C848.138 275.693 847.28 270.648 856.28 262.693C863.982 255.885 936.521 207.806 957.274 194.086C957.79 193.745 958.334 194.448 957.874 194.862C939.349 211.502 874.484 269.701 866.78 275.693Z" fill="url(#paint25_linear)"/>
<path d="M1031.21 552.207C1001.52 576.663 996.411 573.993 995.411 573C994.411 572.008 992.173 567.11 1023.06 540.856C1049.02 518.791 1270.2 343.477 1340.12 288.091C1340.64 287.685 1341.24 288.437 1340.74 288.862C1272.57 347.041 1056.18 531.64 1031.21 552.207Z" fill="url(#paint26_linear)"/>
<path d="M792.956 498.242C822.65 473.786 827.754 476.456 828.754 477.449C829.754 478.442 831.992 483.34 801.104 509.594C775.145 531.658 553.965 706.972 484.041 762.358C483.528 762.764 482.924 762.012 483.422 761.587C551.598 703.408 767.984 518.81 792.956 498.242Z" fill="url(#paint27_linear)"/>
<path d="M547.618 216.73C551.433 214.007 558.067 213.583 561.141 217.168C564.214 220.752 562.262 226.428 558.508 229.943C555.285 232.96 516.24 252.568 505.249 258.06C504.737 258.316 504.277 257.662 504.688 257.265C513.444 248.818 544.348 219.063 547.618 216.73Z" fill="url(#paint28_linear)"/>
<path d="M562.746 896.468C547.972 908.866 532.666 917.196 530.462 913.611C528.257 910.027 540.988 896.497 553.726 885.719C564.398 876.689 897.568 606.901 1005.39 519.605C1005.9 519.19 1006.53 519.938 1006.03 520.365C900.543 609.893 575.119 886.087 562.746 896.468Z" fill="url(#paint29_linear)"/>
<path d="M97.7775 714.527C84.9019 725.33 82.9608 723.017 82.0094 721.883C81.0579 720.749 81.3749 716.541 91.9924 707.632C100.417 700.563 305.681 533.92 390.129 465.37C390.641 464.955 391.267 465.708 390.764 466.135C307.808 536.488 106.152 707.5 97.7775 714.527Z" fill="url(#paint30_linear)"/>
<path d="M569.546 583.804C582.422 573 584.363 575.313 585.314 576.447C586.266 577.581 585.949 581.789 575.331 590.698C566.907 597.767 361.642 764.411 277.194 832.96C276.682 833.376 276.057 832.622 276.56 832.195C359.516 761.842 561.172 590.831 569.546 583.804Z" fill="url(#paint31_linear)"/>
<path d="M335.082 29.7403C341.102 24.6888 339.232 20.1262 337.752 18.3623C336.272 16.5985 331.047 14.8501 326.083 19.0157C321.927 22.5031 221.503 116.457 188.915 146.956C188.446 147.395 189.067 148.11 189.567 147.705C224.227 119.638 330.951 33.2066 335.082 29.7403Z" fill="url(#paint32_linear)"/>
<path d="M998.198 490.759C1001.07 487.07 1006.07 482.07 1001.57 478.07C997.07 474.07 992.57 476.57 989.199 480.035C986.376 482.937 948.772 523.827 936.629 537.035C936.216 537.484 936.812 538.132 937.298 537.763C951.764 526.781 996.838 492.507 998.198 490.759Z" fill="url(#paint33_linear)"/>
<path d="M26.1692 404.291C20.149 409.343 22.0194 413.905 23.4995 415.669C24.9795 417.433 30.2039 419.181 35.1682 415.016C39.3243 411.528 139.748 317.575 172.336 287.076C172.806 286.636 172.184 285.922 171.685 286.327C137.024 314.393 30.3002 400.825 26.1692 404.291Z" fill="url(#paint34_linear)"/>
<path d="M901.283 668.553C914.187 657.725 911.167 654.126 909.687 652.362C908.207 650.598 902.925 648.899 892.283 657.828C883.375 665.303 662.696 860.161 591.046 923.438C590.554 923.872 591.185 924.611 591.691 924.194C665.411 863.352 892.427 675.983 901.283 668.553Z" fill="url(#paint35_linear)"/>
<path d="M879.497 386.141C866.593 396.969 869.612 400.567 871.092 402.331C872.572 404.095 877.855 405.794 888.496 396.865C897.404 389.391 1118.08 194.532 1189.73 131.255C1190.23 130.821 1189.59 130.083 1189.09 130.5C1115.37 191.342 888.352 378.71 879.497 386.141Z" fill="url(#paint36_linear)"/>
<path d="M743.566 362.979C750.308 357.322 748 353.126 746.52 351.362C745.04 349.598 741.309 346.597 734.567 352.255C728.923 356.99 616.58 460.942 580.123 494.689C579.65 495.128 580.276 495.844 580.776 495.436C619.469 463.985 738.937 366.863 743.566 362.979Z" fill="url(#paint37_linear)"/>
<path d="M1149.22 680.478C1162.78 669.1 1159.44 665.119 1157.96 663.355C1156.48 661.591 1151.4 660.371 1140.22 669.754C1131.69 676.911 938.151 847.354 846.849 927.781C845.865 928.648 847.128 930.129 848.14 929.293C941.943 851.812 1140.74 687.593 1149.22 680.478Z" fill="url(#paint38_linear)"/>
<path d="M1347.19 82.3532C1357.48 73.7246 1354.14 69.7431 1352.66 67.9793C1351.18 66.2154 1346.67 64.5133 1338.19 71.6286C1331.73 77.057 1185.9 207.462 1117.12 268.994C1116.15 269.864 1117.4 271.332 1118.41 270.503C1189.7 211.918 1340.76 87.7491 1347.19 82.3532Z" fill="url(#paint39_linear)"/>
<path d="M643.283 980.847C633 989.475 636.341 993.457 637.821 995.221C639.301 996.984 643.802 998.687 652.282 991.571C658.751 986.143 804.575 855.737 873.359 794.206C874.332 793.336 873.073 791.868 872.065 792.697C800.781 851.282 649.714 975.451 643.283 980.847Z" fill="url(#paint40_linear)"/>
<path d="M579.016 464.509C589.299 455.881 602.886 438.144 594.112 429.604C585.337 421.065 567.674 433.772 559.195 440.887C552.028 446.901 379.699 613.247 326.492 664.629C325.576 665.513 326.817 666.917 327.81 666.121C385.455 619.923 571.893 470.486 579.016 464.509Z" fill="url(#paint41_linear)"/>
<path d="M854.677 585.907C878.127 565.413 891.3 549.559 882.981 542.443C874.662 535.327 849.481 554.582 837.106 564.967C826.758 573.649 574.471 804.211 492.065 879.542C491.108 880.416 492.356 881.863 493.361 881.044C579.868 810.535 844.567 594.741 854.677 585.907Z" fill="url(#paint42_linear)"/>
<path d="M167.113 585.512C162.479 589.401 157.066 589.951 154.854 587.314C152.642 584.678 153.357 580.085 158.757 575.554C162.821 572.144 214.867 535.741 240.376 517.933C241.407 517.214 242.555 518.648 241.615 519.482C217.964 540.481 169.273 583.701 167.113 585.512Z" fill="url(#paint43_linear)"/>
<path d="M774.593 82.3303C783.329 75 786.349 78.5985 787.829 80.3623C789.309 82.1261 790.796 87.0102 783.592 93.0549C777.561 98.1153 620.16 220.504 569.054 260.232C568.54 260.631 567.932 259.887 568.425 259.463C617.493 217.274 768.599 87.3604 774.593 82.3303Z" fill="url(#paint44_linear)"/>
<path d="M63.7039 797.103C46.4995 811.539 44.8926 809.624 44.2498 808.858C43.607 808.092 42 806.177 59.2044 791.741C72.3251 780.731 296.662 596.51 402.422 509.675C402.933 509.255 403.568 510.007 403.063 510.434C297.723 599.438 73.3494 789.01 63.7039 797.103Z" fill="url(#paint45_linear)"/>
<path d="M51.5984 870.734C42.2398 878.586 30.7038 880.603 27.6006 877.364C24.4975 874.126 31.3146 863.004 39.3518 856.139C46.2833 850.218 273.419 673.695 335.782 625.239C336.295 624.84 336.901 625.579 336.408 626.003C276.701 677.346 59.6665 863.964 51.5984 870.734Z" fill="url(#paint46_linear)"/>
<path d="M385.209 454.207C355.516 478.663 350.411 475.993 349.411 475C348.411 474.008 346.173 469.11 377.061 442.856C403.021 420.791 624.2 245.477 694.124 190.091C694.637 189.685 695.242 190.437 694.744 190.862C626.568 249.041 410.182 433.64 385.209 454.207Z" fill="url(#paint47_linear)"/>
<path d="M40.7281 96.0585C36.9131 98.7808 30.2791 99.2049 27.2057 95.6204C24.1323 92.0358 26.0842 86.3601 29.8385 82.8453C33.0612 79.8281 72.1059 60.2199 83.0978 54.7279C83.6089 54.4725 84.0696 55.1261 83.6584 55.5228C74.9019 63.9703 43.9985 93.7247 40.7281 96.0585Z" fill="url(#paint48_linear)"/>
<path d="M1058.55 347.804C1071.42 337 1073.36 339.313 1074.31 340.447C1075.27 341.581 1074.95 345.789 1064.33 354.698C1055.91 361.767 850.642 528.411 766.194 596.96C765.682 597.376 765.057 596.622 765.56 596.195C848.516 525.842 1050.17 354.831 1058.55 347.804Z" fill="url(#paint49_linear)"/>
<path d="M443.927 232.122C455.333 222.551 454.491 217.126 453.011 215.362C451.531 213.598 444.334 213.505 434.928 221.397C427.055 228.004 232.554 400.896 169.406 457.039C168.917 457.474 169.547 458.209 170.051 457.794C235.269 404.086 436.101 238.689 443.927 232.122Z" fill="url(#paint50_linear)"/>
<path d="M155.454 374.801C148.712 380.458 151.019 384.654 152.5 386.417C153.98 388.181 157.711 391.183 164.453 385.525C170.097 380.789 282.439 276.838 318.896 243.091C319.37 242.652 318.744 241.936 318.243 242.343C279.551 273.795 160.083 370.916 155.454 374.801Z" fill="url(#paint51_linear)"/>
<path d="M507.056 592.571C520.616 581.193 517.275 577.211 515.795 575.448C514.315 573.684 509.238 572.464 498.057 581.846C489.526 589.004 295.987 759.447 204.685 839.874C203.701 840.741 204.964 842.222 205.976 841.386C299.779 763.905 498.576 599.686 507.056 592.571Z" fill="url(#paint52_linear)"/>
<path d="M100.735 598.342C91.999 605.672 88.9795 602.073 87.4995 600.31C86.0195 598.546 84.5321 593.662 91.7359 587.617C97.7666 582.557 255.168 460.168 306.274 420.44C306.788 420.041 307.396 420.784 306.903 421.208C257.835 463.398 106.73 593.311 100.735 598.342Z" fill="url(#paint53_linear)"/>
<path d="M543.03 89.4459C553.313 80.8173 549.972 76.8358 548.492 75.072C547.012 73.3081 542.51 71.606 534.031 78.7213C527.561 84.1497 381.738 214.555 312.954 276.086C311.981 276.957 313.24 278.424 314.248 277.595C385.532 219.011 536.599 94.8418 543.03 89.4459Z" fill="url(#paint54_linear)"/>
<path d="M178.084 224.847C167.801 233.475 153.128 249.918 159.178 255.21C165.227 260.502 182.528 247.363 191.008 240.248C197.838 234.517 358.062 87.1963 420.154 30.0832C421.107 29.2075 419.857 27.763 418.854 28.5799C353.474 81.8251 184.873 219.15 178.084 224.847Z" fill="url(#paint55_linear)"/>
</g>
<rect width="1440" height="1024" fill="url(#paint56_angular)"/>
<defs>
<linearGradient id="paint0_linear" x1="301.341" y1="377.293" x2="-150.987" y2="756.841" gradientUnits="userSpaceOnUse">
<stop stop-color="#FF9F1C"/>
<stop offset="1" stop-color="#EB00FF" stop-opacity="0"/>
</linearGradient>
<linearGradient id="paint1_linear" x1="868.874" y1="1022.9" x2="1379.18" y2="594.704" gradientUnits="userSpaceOnUse">
<stop stop-color="#2EC4B6"/>
<stop offset="1" stop-color="#00FFC2" stop-opacity="0"/>
</linearGradient>
<linearGradient id="paint2_linear" x1="55.6763" y1="1057.49" x2="566.971" y2="628.461" gradientUnits="userSpaceOnUse">
<stop stop-color="#7000FF"/>
<stop offset="1" stop-color="#7000FF" stop-opacity="0"/>
</linearGradient>
<linearGradient id="paint3_linear" x1="1121.5" y1="577.956" x2="1444.16" y2="307.214" gradientUnits="userSpaceOnUse">
<stop stop-color="#FF9F1C"/>
<stop offset="1" stop-color="#EB00FF" stop-opacity="0"/>
</linearGradient>
<linearGradient id="paint4_linear" x1="1464.31" y1="839.748" x2="1143.1" y2="1109.28" gradientUnits="userSpaceOnUse">
<stop stop-color="#2EC4B6"/>
<stop offset="1" stop-color="#00FFC2" stop-opacity="0"/>
</linearGradient>
<linearGradient id="paint5_linear" x1="341.58" y1="212.039" x2="703.606" y2="-91.7362" gradientUnits="userSpaceOnUse">
<stop stop-color="#FFBF69"/>
<stop offset="1" stop-color="#FF006B" stop-opacity="0"/>
</linearGradient>
<linearGradient id="paint6_linear" x1="206.582" y1="71.8793" x2="-35.2292" y2="274.783" gradientUnits="userSpaceOnUse">
<stop stop-color="#7000FF"/>
<stop offset="1" stop-color="#7000FF" stop-opacity="0"/>
</linearGradient>
<linearGradient id="paint7_linear" x1="453.772" y1="628.451" x2="-35.5382" y2="1039.03" gradientUnits="userSpaceOnUse">
<stop stop-color="#FF9F1C"/>
<stop offset="1" stop-color="#EB00FF" stop-opacity="0"/>
</linearGradient>
<linearGradient id="paint8_linear" x1="1252.23" y1="766.43" x2="1505.16" y2="554.198" gradientUnits="userSpaceOnUse">
<stop stop-color="#FF9F1C"/>
<stop offset="1" stop-color="#EB00FF" stop-opacity="0"/>
</linearGradient>
<linearGradient id="paint9_linear" x1="518.341" y1="757.293" x2="66.013" y2="1136.84" gradientUnits="userSpaceOnUse">
<stop stop-color="#FF9F1C"/>
<stop offset="1" stop-color="#EB00FF" stop-opacity="0"/>
</linearGradient>
<linearGradient id="paint10_linear" x1="909.892" y1="173.773" x2="1216.27" y2="-83.3081" gradientUnits="userSpaceOnUse">
<stop stop-color="#FF9F1C"/>
<stop offset="1" stop-color="#EB00FF" stop-opacity="0"/>
</linearGradient>
<linearGradient id="paint11_linear" x1="1452.89" y1="109.366" x2="942.583" y2="537.56" gradientUnits="userSpaceOnUse">
<stop stop-color="#2EC4B6"/>
<stop offset="1" stop-color="#00FFC2" stop-opacity="0"/>
</linearGradient>
<linearGradient id="paint12_linear" x1="1279.58" y1="507.246" x2="1597.13" y2="240.79" gradientUnits="userSpaceOnUse">
<stop stop-color="#7000FF"/>
<stop offset="1" stop-color="#7000FF" stop-opacity="0"/>
</linearGradient>
<linearGradient id="paint13_linear" x1="1443.67" y1="259.204" x2="932.374" y2="688.232" gradientUnits="userSpaceOnUse">
<stop stop-color="#7000FF"/>
<stop offset="1" stop-color="#7000FF" stop-opacity="0"/>
</linearGradient>
<linearGradient id="paint14_linear" x1="807.585" y1="778.41" x2="445.56" y2="1082.19" gradientUnits="userSpaceOnUse">
<stop stop-color="#FFBF69"/>
<stop offset="1" stop-color="#FF006B" stop-opacity="0"/>
</linearGradient>
<linearGradient id="paint15_linear" x1="1079.52" y1="1018.43" x2="1321.33" y2="815.529" gradientUnits="userSpaceOnUse">
<stop stop-color="#7000FF"/>
<stop offset="1" stop-color="#7000FF" stop-opacity="0"/>
</linearGradient>
<linearGradient id="paint16_linear" x1="777.843" y1="383.335" x2="1267.15" y2="-27.245" gradientUnits="userSpaceOnUse">
<stop stop-color="#FF9F1C"/>
<stop offset="1" stop-color="#EB00FF" stop-opacity="0"/>
</linearGradient>
<linearGradient id="paint17_linear" x1="1071.4" y1="982.699" x2="1449.15" y2="665.721" gradientUnits="userSpaceOnUse">
<stop stop-color="#FF9F1C"/>
<stop offset="1" stop-color="#EB00FF" stop-opacity="0"/>
</linearGradient>
<linearGradient id="paint18_linear" x1="708.22" y1="-6.67994" x2="611.245" y2="74.6923" gradientUnits="userSpaceOnUse">
<stop stop-color="#FFBF69"/>
<stop offset="1" stop-color="#FF006B" stop-opacity="0"/>
</linearGradient>
<linearGradient id="paint19_linear" x1="332.834" y1="983.537" x2="555.685" y2="796.543" gradientUnits="userSpaceOnUse">
<stop stop-color="#2EC4B6"/>
<stop offset="1" stop-color="#00FFC2" stop-opacity="0"/>
</linearGradient>
<linearGradient id="paint20_linear" x1="584.166" y1="726.147" x2="1132.96" y2="265.652" gradientUnits="userSpaceOnUse">
<stop stop-color="#2EC4B6"/>
<stop offset="1" stop-color="#00FFC2" stop-opacity="0"/>
</linearGradient>
<linearGradient id="paint21_linear" x1="929.845" y1="39.3323" x2="535.26" y2="370.429" gradientUnits="userSpaceOnUse">
<stop stop-color="#2EC4B6"/>
<stop offset="1" stop-color="#00FFC2" stop-opacity="0"/>
</linearGradient>
<linearGradient id="paint22_linear" x1="1000.42" y1="265.275" x2="681.221" y2="533.111" gradientUnits="userSpaceOnUse">
<stop stop-color="#FFBF69"/>
<stop offset="1" stop-color="#FF006B" stop-opacity="0"/>
</linearGradient>
<linearGradient id="paint23_linear" x1="873.364" y1="834.419" x2="1192.56" y2="566.583" gradientUnits="userSpaceOnUse">
<stop stop-color="#FFBF69"/>
<stop offset="1" stop-color="#FF006B" stop-opacity="0"/>
</linearGradient>
<linearGradient id="paint24_linear" x1="1393.6" y1="449.414" x2="1295.88" y2="531.411" gradientUnits="userSpaceOnUse">
<stop stop-color="#FF9F1C"/>
<stop offset="1" stop-color="#EB00FF" stop-opacity="0"/>
</linearGradient>
<linearGradient id="paint25_linear" x1="850.525" y1="278.444" x2="948.246" y2="196.447" gradientUnits="userSpaceOnUse">
<stop stop-color="#FF9F1C"/>
<stop offset="1" stop-color="#EB00FF" stop-opacity="0"/>
</linearGradient>
<linearGradient id="paint26_linear" x1="996.58" y1="572.039" x2="1358.61" y2="268.264" gradientUnits="userSpaceOnUse">
<stop stop-color="#FFBF69"/>
<stop offset="1" stop-color="#FF006B" stop-opacity="0"/>
</linearGradient>
<linearGradient id="paint27_linear" x1="827.585" y1="478.41" x2="465.56" y2="782.185" gradientUnits="userSpaceOnUse">
<stop stop-color="#FFBF69"/>
<stop offset="1" stop-color="#FF006B" stop-opacity="0"/>
</linearGradient>
<linearGradient id="paint28_linear" x1="559.867" y1="217.638" x2="508.682" y2="260.587" gradientUnits="userSpaceOnUse">
<stop stop-color="#7000FF"/>
<stop offset="1" stop-color="#7000FF" stop-opacity="0"/>
</linearGradient>
<linearGradient id="paint29_linear" x1="530.837" y1="914.084" x2="983.165" y2="534.536" gradientUnits="userSpaceOnUse">
<stop stop-color="#FF9F1C"/>
<stop offset="1" stop-color="#EB00FF" stop-opacity="0"/>
</linearGradient>
<linearGradient id="paint30_linear" x1="82.0093" y1="721.883" x2="388.387" y2="464.802" gradientUnits="userSpaceOnUse">
<stop stop-color="#FF9F1C"/>
<stop offset="1" stop-color="#EB00FF" stop-opacity="0"/>
</linearGradient>
<linearGradient id="paint31_linear" x1="585.314" y1="576.447" x2="278.937" y2="833.529" gradientUnits="userSpaceOnUse">
<stop stop-color="#FF9F1C"/>
<stop offset="1" stop-color="#EB00FF" stop-opacity="0"/>
</linearGradient>
<linearGradient id="paint32_linear" x1="336.281" y1="18.9435" x2="181.607" y2="148.731" gradientUnits="userSpaceOnUse">
<stop stop-color="#2EC4B6"/>
<stop offset="1" stop-color="#00FFC2" stop-opacity="0"/>
</linearGradient>
<linearGradient id="paint33_linear" x1="1001.13" y1="478.464" x2="932.631" y2="535.942" gradientUnits="userSpaceOnUse">
<stop stop-color="#2EC4B6"/>
<stop offset="1" stop-color="#00FFC2" stop-opacity="0"/>
</linearGradient>
<linearGradient id="paint34_linear" x1="24.9699" y1="415.088" x2="179.644" y2="285.301" gradientUnits="userSpaceOnUse">
<stop stop-color="#2EC4B6"/>
<stop offset="1" stop-color="#00FFC2" stop-opacity="0"/>
</linearGradient>
<linearGradient id="paint35_linear" x1="903.604" y1="657.447" x2="586.055" y2="923.903" gradientUnits="userSpaceOnUse">
<stop stop-color="#7000FF"/>
<stop offset="1" stop-color="#7000FF" stop-opacity="0"/>
</linearGradient>
<linearGradient id="paint36_linear" x1="877.175" y1="397.246" x2="1194.72" y2="130.79" gradientUnits="userSpaceOnUse">
<stop stop-color="#7000FF"/>
<stop offset="1" stop-color="#7000FF" stop-opacity="0"/>
</linearGradient>
<linearGradient id="paint37_linear" x1="743.325" y1="354.024" x2="576.753" y2="493.795" gradientUnits="userSpaceOnUse">
<stop stop-color="#7000FF"/>
<stop offset="1" stop-color="#7000FF" stop-opacity="0"/>
</linearGradient>
<linearGradient id="paint38_linear" x1="1158.28" y1="663.738" x2="835.623" y2="934.479" gradientUnits="userSpaceOnUse">
<stop stop-color="#FF9F1C"/>
<stop offset="1" stop-color="#EB00FF" stop-opacity="0"/>
</linearGradient>
<linearGradient id="paint39_linear" x1="1352.98" y1="68.3621" x2="1108.29" y2="273.682" gradientUnits="userSpaceOnUse">
<stop stop-color="#FF9F1C"/>
<stop offset="1" stop-color="#EB00FF" stop-opacity="0"/>
</linearGradient>
<linearGradient id="paint40_linear" x1="637.5" y1="994.838" x2="882.19" y2="789.518" gradientUnits="userSpaceOnUse">
<stop stop-color="#FF9F1C"/>
<stop offset="1" stop-color="#EB00FF" stop-opacity="0"/>
</linearGradient>
<linearGradient id="paint41_linear" x1="594.105" y1="431.401" x2="305.754" y2="673.357" gradientUnits="userSpaceOnUse">
<stop stop-color="#FFBF69"/>
<stop offset="1" stop-color="#FF006B" stop-opacity="0"/>
</linearGradient>
<linearGradient id="paint42_linear" x1="883.991" y1="543.474" x2="506.231" y2="860.452" gradientUnits="userSpaceOnUse">
<stop stop-color="#FF9F1C"/>
<stop offset="1" stop-color="#EB00FF" stop-opacity="0"/>
</linearGradient>
<linearGradient id="paint43_linear" x1="155.099" y1="586.974" x2="252.075" y2="505.602" gradientUnits="userSpaceOnUse">
<stop stop-color="#FFBF69"/>
<stop offset="1" stop-color="#FF006B" stop-opacity="0"/>
</linearGradient>
<linearGradient id="paint44_linear" x1="786.494" y1="82.1345" x2="563.643" y2="269.129" gradientUnits="userSpaceOnUse">
<stop stop-color="#2EC4B6"/>
<stop offset="1" stop-color="#00FFC2" stop-opacity="0"/>
</linearGradient>
<linearGradient id="paint45_linear" x1="47.0204" y1="806.207" x2="441.605" y2="475.111" gradientUnits="userSpaceOnUse">
<stop stop-color="#2EC4B6"/>
<stop offset="1" stop-color="#00FFC2" stop-opacity="0"/>
</linearGradient>
<linearGradient id="paint46_linear" x1="29.0525" y1="877.018" x2="348.247" y2="609.182" gradientUnits="userSpaceOnUse">
<stop stop-color="#FFBF69"/>
<stop offset="1" stop-color="#FF006B" stop-opacity="0"/>
</linearGradient>
<linearGradient id="paint47_linear" x1="350.58" y1="474.039" x2="712.606" y2="170.264" gradientUnits="userSpaceOnUse">
<stop stop-color="#FFBF69"/>
<stop offset="1" stop-color="#FF006B" stop-opacity="0"/>
</linearGradient>
<linearGradient id="paint48_linear" x1="28.4791" y1="95.1504" x2="79.6642" y2="52.2009" gradientUnits="userSpaceOnUse">
<stop stop-color="#7000FF"/>
<stop offset="1" stop-color="#7000FF" stop-opacity="0"/>
</linearGradient>
<linearGradient id="paint49_linear" x1="1074.31" y1="340.447" x2="767.937" y2="597.529" gradientUnits="userSpaceOnUse">
<stop stop-color="#FF9F1C"/>
<stop offset="1" stop-color="#EB00FF" stop-opacity="0"/>
</linearGradient>
<linearGradient id="paint50_linear" x1="450.512" y1="216.806" x2="157.464" y2="462.703" gradientUnits="userSpaceOnUse">
<stop stop-color="#2EC4B6"/>
<stop offset="1" stop-color="#00FFC2" stop-opacity="0"/>
</linearGradient>
<linearGradient id="paint51_linear" x1="155.695" y1="383.755" x2="322.267" y2="243.985" gradientUnits="userSpaceOnUse">
<stop stop-color="#7000FF"/>
<stop offset="1" stop-color="#7000FF" stop-opacity="0"/>
</linearGradient>
<linearGradient id="paint52_linear" x1="516.116" y1="575.83" x2="193.459" y2="846.572" gradientUnits="userSpaceOnUse">
<stop stop-color="#FF9F1C"/>
<stop offset="1" stop-color="#EB00FF" stop-opacity="0"/>
</linearGradient>
<linearGradient id="paint53_linear" x1="88.8337" y1="598.537" x2="311.685" y2="411.543" gradientUnits="userSpaceOnUse">
<stop stop-color="#2EC4B6"/>
<stop offset="1" stop-color="#00FFC2" stop-opacity="0"/>
</linearGradient>
<linearGradient id="paint54_linear" x1="548.813" y1="75.4548" x2="304.122" y2="280.775" gradientUnits="userSpaceOnUse">
<stop stop-color="#FF9F1C"/>
<stop offset="1" stop-color="#EB00FF" stop-opacity="0"/>
</linearGradient>
<linearGradient id="paint55_linear" x1="159.492" y1="253.779" x2="447.843" y2="11.8236" gradientUnits="userSpaceOnUse">
<stop stop-color="#FFBF69"/>
<stop offset="1" stop-color="#FF006B" stop-opacity="0"/>
</linearGradient>
<clipPath id="clip0">
<rect width="1440" height="1024" rx="20" fill="white"/>
</clipPath>
</defs>
</svg>
